<?xml version="1.0" encoding="UTF-8"?>
<!-- Generator: visioncortex VTracer 0.6.2 -->
<svg version="1.1" xmlns="http://www.w3.org/2000/svg" width="1280" height="1264">
<path d="M0 0 C422.4 0 844.8 0 1280 0 C1280 417.12 1280 834.24 1280 1264 C857.6 1264 435.2 1264 0 1264 C0 846.88 0 429.76 0 0 Z " fill="#FAFCFC" transform="translate(0,0)"/>
<path d="M0 0 C3.22955977 2.92132482 4.99585323 5.60598324 6.77734375 9.56640625 C7.28394531 10.67757813 7.79054688 11.78875 8.3125 12.93359375 C9.116875 14.72990234 9.116875 14.72990234 9.9375 16.5625 C11.09869445 19.11779324 12.26639513 21.67010113 13.43359375 24.22265625 C13.73006805 24.87324005 14.02654236 25.52382385 14.33200073 26.19412231 C17.29188001 32.6760819 20.38682672 39.09041419 23.5 45.5 C28.48079566 55.78155518 33.32537027 66.11987243 38.11181641 76.49316406 C41.94819627 84.7877259 45.88755668 93.02733539 49.875 101.25 C53.91636432 109.5850157 57.83925979 117.93661358 61.4375 126.47265625 C62.66358108 129.2405343 63.94867994 131.92532037 65.3125 134.625 C68.3593975 140.66024455 71.17436644 146.7963184 74 152.9375 C78.41415231 162.50085861 82.90775528 172.02047418 87.5 181.5 C92.47964414 191.78212622 97.32535918 202.11984839 102.11181641 212.49316406 C105.94819608 220.78772551 109.88754277 229.02734242 113.875 237.25 C117.88489343 245.51977727 121.78159394 253.80296051 125.33984375 262.27734375 C126.71192008 265.45537775 128.25414763 268.53439025 129.8125 271.625 C133.04468854 278.03805668 136.06415704 284.53757004 139.0625 291.0625 C143.45464925 300.58480258 147.92806695 310.06228828 152.5 319.5 C157.38135451 329.58399489 162.14457138 339.71668266 166.84375 349.88671875 C171.34401058 359.61585354 175.91383365 369.31109922 180.5 379 C185.62814991 389.83391484 190.72233852 400.68155616 195.75 411.5625 C199.91913899 420.58187495 204.1710277 429.55625917 208.5 438.5 C213.40574495 448.63575178 218.19482677 458.81976843 222.9206543 469.04052734 C227.18191518 478.25245458 231.4865946 487.44326024 235.8125 496.625 C236.31606522 497.69386948 236.31606522 497.69386948 236.82980347 498.78433228 C238.19700616 501.68607938 239.56438573 504.58774297 240.93211365 507.48924255 C243.27151269 512.45237309 245.6075157 517.41708946 247.94140625 522.3828125 C255.35636323 538.15707494 262.80073497 553.91700526 270.2706604 569.66531372 C275.98997019 581.72575401 281.66297881 593.80688474 287.29418945 605.90869141 C290.07671339 611.88651103 292.8718077 617.85735775 295.70922852 623.80932617 C297.11827807 626.76680239 298.51662118 629.72923379 299.91162109 632.69335938 C300.69209921 634.34745477 301.47676856 635.99957503 302.26416016 637.65039062 C303.56483162 640.38570415 304.84660233 643.12921764 306.125 645.875 C306.72985229 647.13401123 306.72985229 647.13401123 307.34692383 648.41845703 C307.89062622 649.59964111 307.89062622 649.59964111 308.4453125 650.8046875 C308.77031738 651.49546387 309.09532227 652.18624023 309.43017578 652.89794922 C310.64645287 657.38472972 308.58343871 661.24677281 306.69140625 665.27734375 C306.20091797 666.32857422 305.71042969 667.37980469 305.20507812 668.46289062 C304.66302734 669.60951172 304.12097656 670.75613281 303.5625 671.9375 C302.98722441 673.16452337 302.41236621 674.3917425 301.83789062 675.61914062 C299.90114403 679.75046088 297.9516906 683.87572234 296 688 C295.64605164 688.74807922 295.29210327 689.49615845 294.9274292 690.26690674 C291.50723038 697.49380303 288.08307769 704.71882191 284.65429688 711.94165039 C280.24553643 721.23255059 275.87506484 730.53897747 271.5625 739.875 C266.36559956 751.11890088 261.07122108 762.31452468 255.75 773.5 C255.14452835 774.7728183 255.14452835 774.7728183 254.52682495 776.0713501 C252.89277156 779.50628763 251.25866501 782.94119988 249.62446594 786.37606812 C245.4456125 795.16153453 241.28063932 803.95353073 237.125 812.75 C236.59874527 813.86388596 236.59874527 813.86388596 236.06185913 815.00027466 C230.82383636 826.09201362 225.63953908 837.20767884 220.48803711 848.33984375 C215.73681813 858.59731155 210.88971653 868.80791847 206 879 C202.21044922 878.29931641 202.21044922 878.29931641 200.31640625 875.60546875 C199.44822266 873.91357422 199.44822266 873.91357422 198.5625 872.1875 C198.22452393 871.53064209 197.88654785 870.87378418 197.53833008 870.19702148 C193.37387548 861.97357635 189.57005289 853.57016924 185.720047 845.1966095 C182.58927377 838.39299732 179.40562017 831.61636706 176.18359375 824.85546875 C175.7663353 823.97971695 175.34907684 823.10396515 174.91917419 822.20167542 C173.25042127 818.70140402 171.58062551 815.20164485 169.90609741 811.70413208 C165.56979126 802.64651597 161.28868169 793.5819232 157.34280396 784.3460083 C155.50353231 780.05766767 153.49078533 775.90631378 151.375 771.75 C147.81947571 764.73778134 144.48059304 757.63918581 141.1875 750.5 C135.80405903 738.83893833 130.33102702 727.22273315 124.8125 715.625 C124.41336395 714.78599152 124.01422791 713.94698303 123.60299683 713.08255005 C121.9726064 709.65548977 120.34204622 706.22851039 118.71110535 702.80171204 C114.60170605 694.166308 110.5032083 685.52575237 106.40878296 676.88323975 C105.28960512 674.521091 104.16984035 672.15922115 103.05004883 669.79736328 C96.70049361 656.39888975 90.38108961 642.99290025 84.38476562 629.43164062 C82.39243591 624.96607402 80.30328528 620.56963011 78.1015625 616.203125 C74.89782544 609.8477565 71.90899116 603.40399565 68.9375 596.9375 C64.54535253 587.41520128 60.07213415 577.93761166 55.5 568.5 C50.51747721 558.21197843 45.67024732 547.86775482 40.87939453 537.48925781 C37.12314719 529.37051544 33.27533888 521.30041043 29.375 513.25 C24.28235245 502.73511332 19.36268557 492.15126248 14.51953125 481.51953125 C12.16611276 476.35390836 9.78408211 471.20238934 7.375 466.0625 C7.04395264 465.35206543 6.71290527 464.64163086 6.37182617 463.90966797 C5.02119851 460.73571165 5.02119851 460.73571165 3 458 C-7.62355754 480.41396177 -18.23425928 502.8339177 -28.82029724 525.265625 C-31.33950521 530.60295166 -33.86251913 535.93847006 -36.38671875 541.2734375 C-42.92685329 555.09965102 -49.45113934 568.93182034 -55.875 582.8125 C-59.95492673 591.62587845 -64.07013128 600.42102443 -68.25 609.1875 C-68.71647949 610.16887939 -69.18295898 611.15025879 -69.66357422 612.16137695 C-70.08912598 613.05042725 -70.51467773 613.93947754 -70.953125 614.85546875 C-71.32598633 615.63559326 -71.69884766 616.41571777 -72.08300781 617.21948242 C-73 619 -73 619 -74 620 C-76.78161864 620.09789273 -79.53840456 620.12993016 -82.32044983 620.12025452 C-83.20335156 620.12110894 -84.0862533 620.12196337 -84.99590963 620.12284368 C-87.97784335 620.1245012 -90.95972179 620.11897269 -93.94165039 620.11352539 C-96.06984964 620.11324355 -98.19804898 620.11340119 -100.32624817 620.1139679 C-106.12353317 620.114256 -111.92079768 620.10835723 -117.7180779 620.10139394 C-123.7692805 620.0951625 -129.82048352 620.09455677 -135.87168884 620.09336853 C-147.33935031 620.09025459 -158.80700229 620.08204037 -170.27465957 620.07201904 C-183.32642834 620.06085983 -196.37819756 620.05534794 -209.42996991 620.05032361 C-236.28665187 620.0398578 -263.1433254 620.02225716 -290 620 C-290.33 619.34 -290.66 618.68 -291 618 C-290.03466797 615.55517578 -290.03466797 615.55517578 -288.4921875 612.4453125 C-287.9242749 611.28757324 -287.3563623 610.12983398 -286.77124023 608.93701172 C-286.46274139 608.31695251 -286.15424255 607.69689331 -285.83639526 607.05804443 C-284.19623815 603.76023687 -282.58216219 600.44967616 -280.96484375 597.140625 C-280.63160599 596.46051361 -280.29836823 595.78040222 -279.95503235 595.0796814 C-276.68409365 588.38960516 -273.55089749 581.63987753 -270.4375 574.875 C-266.09373759 565.45288784 -261.65209004 556.08508647 -257.125 546.75 C-253.11509254 538.48023063 -249.21840561 530.19703842 -245.66015625 521.72265625 C-244.28807992 518.54462225 -242.74585237 515.46560975 -241.1875 512.375 C-237.95531146 505.96194332 -234.93584296 499.46242996 -231.9375 492.9375 C-227.54535253 483.41520128 -223.07213415 473.93761166 -218.5 464.5 C-213.52105191 454.21935954 -208.67573655 443.88325123 -203.89038086 433.51123047 C-200.03374487 425.17221099 -196.07193838 416.89127375 -192.0625 408.625 C-188.25892428 400.78183381 -184.59217353 392.93852043 -181.2421875 384.890625 C-179.54915671 380.95086781 -177.61499198 377.15316078 -175.671875 373.33203125 C-170.3328753 362.69145474 -165.38857778 351.8504194 -160.39086914 341.046875 C-155.50752583 330.49112263 -150.56861187 319.96855057 -145.5 309.5 C-140.6188743 299.41589207 -135.85543067 289.28332177 -131.15625 279.11328125 C-126.2967167 268.60743307 -121.35390132 258.14189122 -116.40161133 247.67950439 C-111.64045638 237.61871159 -106.91868865 227.54154921 -102.25 217.4375 C-97.55590337 207.28244937 -92.73924878 197.19231894 -87.86523438 187.12255859 C-83.53683229 178.16121116 -79.33050593 169.14727142 -75.15625 160.11328125 C-70.2967167 149.60743307 -65.35390132 139.14189122 -60.40161133 128.67950439 C-55.64045638 118.61871159 -50.91868865 108.54154921 -46.25 98.4375 C-42.08086017 89.41812325 -37.82888905 80.44378243 -33.5 71.5 C-24.22883719 52.34071353 -15.33760456 33.00446714 -6.51318359 13.63598633 C-4.41892946 9.04801699 -2.29751636 4.48991759 0 0 Z " fill="#5BA96B" transform="translate(452,252)"/>
<path d="M0 0 C2.88643884 1.44321942 3.25724877 3.35054602 4.58203125 6.2734375 C5.09507812 7.39427734 5.608125 8.51511719 6.13671875 9.66992188 C6.54543213 10.5737561 6.54543213 10.5737561 6.96240234 11.49584961 C8.41601491 14.70907647 9.89062871 17.9126535 11.36328125 21.1171875 C11.66593903 21.77704651 11.9685968 22.43690552 12.28042603 23.11676025 C15.26931532 29.61875537 18.37544478 36.06221559 21.5 42.5 C26.457843 52.73458542 31.27844152 63.02604582 36.04150391 73.35253906 C40.34711874 82.65994055 44.79697096 91.89163478 49.28121948 101.11367798 C53.16983256 109.11764347 56.9392248 117.13888653 60.375 125.34765625 C61.77360761 128.49116134 63.26012192 131.54616496 64.80859375 134.6171875 C68.04207586 141.03286613 71.06293657 147.53491408 74.0625 154.0625 C78.45464747 163.58479872 82.92786585 173.06238834 87.5 182.5 C92.47894809 192.78064046 97.32426345 203.11674877 102.10961914 213.48876953 C105.96625513 221.82778901 109.92806162 230.10872625 113.9375 238.375 C117.74107572 246.21816619 121.40782647 254.06147957 124.7578125 262.109375 C126.45084329 266.04913219 128.38500802 269.84683922 130.328125 273.66796875 C135.6671247 284.30854526 140.61142222 295.1495806 145.60913086 305.953125 C150.49247417 316.50887737 155.43138813 327.03144943 160.5 337.5 C165.3811257 347.58410793 170.14456933 357.71667823 174.84375 367.88671875 C179.34401058 377.61585354 183.91383365 387.31109922 188.5 397 C193.62814991 407.83391484 198.72233852 418.68155616 203.75 429.5625 C207.91913899 438.58187495 212.1710277 447.55625917 216.5 456.5 C221.40574495 466.63575178 226.19482677 476.81976843 230.9206543 487.04052734 C235.18191518 496.25245458 239.4865946 505.44326024 243.8125 514.625 C244.14821014 515.33757965 244.48392029 516.0501593 244.82980347 516.78433228 C246.19700616 519.68607938 247.56438573 522.58774297 248.93211365 525.48924255 C251.27151269 530.45237311 253.60750497 535.4170945 255.94140625 540.3828125 C257.2525334 543.17190827 258.56376029 545.96095715 259.875 548.75 C260.19884674 549.43894348 260.52269348 550.12788696 260.85635376 550.83770752 C264.79622009 559.21757012 268.75138435 567.5899513 272.7265625 575.953125 C273.5301132 577.64485557 274.33366139 579.33658734 275.13720703 581.02832031 C276.65907458 584.2320145 278.18386359 587.43429406 279.71044922 590.63574219 C283.6543057 598.92591922 287.465904 607.26001379 291.16294861 615.66316223 C293.47414866 620.88904815 295.9488418 626.00715585 298.54345703 631.09912109 C301.30874563 636.60652289 303.85718537 642.21671079 306.4375 647.8125 C307.01802784 649.06780146 307.59875913 650.32300885 308.1796875 651.578125 C309.30258549 654.00441425 310.42473207 656.43104525 311.54638672 658.85791016 C313.18931153 662.40921052 314.84210078 665.95566908 316.5 669.5 C318.65071654 674.09955221 320.78982509 678.70426097 322.921875 683.3125 C323.74818301 685.09730557 324.57449561 686.88210903 325.40103149 688.66680908 C325.96464098 689.88381982 326.5280985 691.10090095 327.09140015 692.3180542 C331.54992026 701.94698209 336.09483633 711.53217994 340.74902344 721.06835938 C341.17860352 721.95587891 341.60818359 722.84339844 342.05078125 723.7578125 C342.61792847 724.92014404 342.61792847 724.92014404 343.1965332 726.10595703 C344 728 344 728 344 730 C315.92358507 730.18676318 287.84726303 730.32789743 259.77035236 730.41449738 C246.73414171 730.45577352 233.69831668 730.51206126 220.66235352 730.60351562 C209.30208671 730.68317618 197.94209913 730.73484754 186.58156079 730.75270796 C180.56434553 730.76315075 174.54792917 730.78774405 168.53096962 730.84584045 C162.86976499 730.90006007 157.2096898 730.91690906 151.5482502 730.90486145 C149.46847652 730.90706603 147.38866587 730.92302919 145.30911636 730.9536438 C142.47183873 730.99337168 139.63884155 730.98391829 136.8014679 730.96203613 C135.97558727 730.98533886 135.14970665 731.0086416 134.29879934 731.03265047 C131.94522039 730.98347647 130.19548648 730.85622807 128 730 C125.7591354 727.58371836 124.38631599 724.97019027 123 722 C122.64058282 721.29495724 122.28116563 720.58991448 121.91085702 719.86350679 C120.88076271 717.8394286 119.91381972 715.79225753 118.953125 713.734375 C118.58441284 712.95519714 118.21570068 712.17601929 117.83581543 711.37322998 C116.63578539 708.83436747 115.44279671 706.29226778 114.25 703.75 C113.4109144 701.97049906 112.57138982 700.19120506 111.73144531 698.41210938 C110.0047273 694.75309408 108.28073166 691.09281364 106.55859375 687.43164062 C104.12295569 682.25648616 101.67266425 677.08838263 99.21875 671.921875 C98.08856054 669.53955473 96.95868327 667.15708675 95.82897949 664.77453613 C95.12295841 663.2862127 94.4163571 661.79816434 93.70910645 660.3104248 C89.8049267 652.09315461 85.99584058 643.84915945 82.41278076 635.48596191 C80.54714953 631.15289211 78.51421274 626.95210015 76.375 622.75 C72.81947571 615.73778134 69.48059304 608.63918581 66.1875 601.5 C60.80405821 589.83893657 55.33088703 578.22280079 49.8125 566.625 C49.2103064 565.3590097 49.2103064 565.3590097 48.59594727 564.06744385 C46.95737894 560.6227375 45.31858674 557.17813784 43.67938232 553.73373413 C30.56261926 526.17087214 17.51076474 498.5791993 4.703125 470.87109375 C-1.14130713 458.23415402 -7.07217947 445.64726625 -13.13842773 433.11523438 C-17.42044085 424.25069356 -21.57646217 415.33222921 -25.703125 406.39453125 C-30.56171813 395.89444372 -35.52540193 385.44554427 -40.5 375 C-45.90544368 363.64818446 -51.28907733 352.28889493 -56.5625 340.875 C-61.56316008 330.05358441 -66.64138569 319.27078235 -71.75 308.5 C-72.31873337 307.30065826 -72.31873337 307.30065826 -72.8989563 306.0770874 C-74.8260675 302.01341752 -76.75372494 297.95000701 -78.68164062 293.88671875 C-84.19470451 282.2667158 -89.70563437 270.64581271 -95.17385864 259.00462341 C-96.68260178 255.79371887 -98.19525287 252.58491145 -99.72363281 249.38330078 C-101.20268258 246.28181936 -102.66601116 243.1734544 -104.125 240.0625 C-104.54523437 239.19302734 -104.96546875 238.32355469 -105.3984375 237.42773438 C-105.94757812 236.2434082 -105.94757812 236.2434082 -106.5078125 235.03515625 C-106.82379395 234.3687915 -107.13977539 233.70242676 -107.46533203 233.01586914 C-108.75724198 228.1449557 -106.13512326 223.82075779 -104.078125 219.49609375 C-103.78205353 218.86922668 -103.48598206 218.24235962 -103.18093872 217.59649658 C-102.20895498 215.54108866 -101.22944839 213.48935986 -100.25 211.4375 C-99.21967009 209.26348103 -98.1912439 207.08856753 -97.16281128 204.91365051 C-96.46305825 203.43432118 -95.76263394 201.9553092 -95.06155396 200.47660828 C-91.78727328 193.56768993 -88.57885823 186.62935753 -85.375 179.6875 C-80.63785363 169.4485213 -75.77872535 159.27365189 -70.86352539 149.11914062 C-67.10671696 141.34155306 -63.4351528 133.52839524 -59.8125 125.6875 C-54.61912668 114.45208988 -49.36090659 103.24875118 -44.0625 92.0625 C-43.4888269 90.85099777 -43.4888269 90.85099777 -42.90356445 89.61502075 C-37.76017201 78.75866465 -32.55898598 67.93184738 -27.3125 57.125 C-23.19864573 48.64766997 -19.21552945 40.14873538 -15.50390625 31.48828125 C-10.85483742 20.70485667 -5.69653235 10.26760997 0 0 Z " fill="#5BA96B" transform="translate(722,142)"/>
</svg>
